<svg width="1024" height="1024" viewBox="0 0 1024 1024" fill="none" xmlns="http://www.w3.org/2000/svg">
<path d="M487.002 587.842C433.564 508.821 389.103 443.447 384.249 436.812C384.245 436.88 384.241 436.957 384.237 437.041C384.229 437.205 384.221 437.397 384.213 437.615M487.002 587.842L562.495 2.09959C601.491 6.49916 636.288 13.7985 668.985 24.3974C854.367 84.1916 991.053 245.576 1018.85 437.657C1022.95 465.754 1023.45 474.053 1023.45 512.15C1023.45 550.246 1022.95 558.545 1018.85 586.643C1004.85 683.233 963.156 773.824 898.462 848.117C868.065 883.114 829.669 916.71 793.373 940.308L789.69 942.732L789.415 942.315M487.002 587.842L589.492 739.528L671.284 850.017C716.28 910.811 753.776 961.106 754.576 961.706C755.776 962.706 754.076 963.906 745.277 968.405C687.883 997.702 629.688 1014.7 560.995 1022.3C545.497 1024 478.503 1024 463.005 1022.3C423.209 1017.9 388.212 1010.6 355.015 999.902C169.633 940.108 32.9468 778.724 5.14949 586.643C1.04989 558.545 0.549942 550.246 0.549942 512.15C0.549942 474.053 1.04989 465.754 5.14949 437.657C16.7484 357.165 47.4454 281.172 95.4407 214.179C181.632 93.6907 317.719 15.2983 463.005 2.19958M384.213 437.615C384.141 437.515 384.074 437.422 384.012 437.336C383.907 437.191 383.817 437.067 383.74 436.963C383.365 444.337 383.001 508.511 382.813 585.843C382.513 729.929 382.413 735.728 380.613 739.128C378.013 744.027 376.013 746.027 371.814 748.227C368.614 749.827 365.814 750.127 350.716 750.127H333.417L328.818 747.227C325.818 745.327 323.618 742.827 322.119 739.928L320.019 735.428L320.219 534.948L320.519 334.367L323.618 330.467M384.213 437.615C384.196 438.063 384.179 438.623 384.163 439.293C384.113 441.284 384.064 444.227 384.016 448.022C383.919 455.61 383.825 466.595 383.738 480.156C383.563 507.278 383.413 544.698 383.313 585.844C383.163 657.885 383.063 695.36 382.775 715.25C382.631 725.191 382.441 730.753 382.172 734.045C381.903 737.341 381.552 738.422 381.055 739.362L381.055 739.362C379.744 741.832 378.568 743.603 377.172 745.038C375.772 746.477 374.173 747.555 372.046 748.67L372.037 748.674C368.708 750.339 365.768 750.627 350.716 750.627H333.417H333.273L333.151 750.55L328.551 747.65L328.55 747.649C325.473 745.7 323.214 743.133 321.674 740.157L321.67 740.148L321.665 740.139L319.566 735.639L319.519 735.539L319.519 735.427L319.719 534.947L320.019 334.366L320.019 334.192L320.127 334.056L323.221 330.164L323.618 330.467M384.213 437.615C384.571 438.116 385.048 438.792 385.638 439.637C387.054 441.663 389.119 444.651 391.762 448.499C397.048 456.194 404.647 467.323 413.996 481.059C432.694 508.531 458.391 546.427 486.588 588.122L589.078 739.808L589.084 739.816L589.091 739.825L670.883 850.314C693.381 880.712 714.004 908.484 729.103 928.733C736.652 938.857 742.821 947.101 747.153 952.851C749.318 955.726 751.025 957.979 752.216 959.532C752.558 959.978 752.858 960.366 753.114 960.696C753.304 960.94 753.47 961.152 753.611 961.331C753.777 961.54 753.911 961.706 754.011 961.826C754.061 961.885 754.105 961.937 754.141 961.977C754.164 962.002 754.208 962.051 754.258 962.091C754.371 962.186 754.404 962.246 754.414 962.271L754.414 962.272C754.417 962.281 754.425 962.3 754.402 962.358C754.372 962.432 754.297 962.554 754.126 962.727C753.957 962.898 753.716 963.099 753.385 963.337C752.047 964.298 749.46 965.705 745.05 967.96C687.713 997.228 629.578 1014.21 560.941 1021.8C553.224 1022.65 532.631 1023.07 512 1023.07C491.369 1023.07 470.776 1022.65 463.06 1021.8C423.293 1017.41 388.33 1010.11 355.169 999.426C169.968 939.69 33.4141 778.462 5.64434 586.571L5.64425 586.57C1.54912 558.504 1.04994 550.23 1.04994 512.15C1.04994 474.07 1.54912 465.796 5.64425 437.729L5.64438 437.728C17.2317 357.317 47.8979 281.399 95.8471 214.47L95.8473 214.47C181.955 94.0988 317.909 15.784 463.047 2.6978M323.618 330.467C325.218 328.368 328.618 325.668 331.018 324.368C335.117 322.368 336.717 322.168 354.015 322.168C374.413 322.168 377.813 322.968 383.113 328.768C384.612 330.368 440.107 413.959 506.501 514.65C572.894 615.34 663.685 752.826 708.281 820.32L788.998 942.59L789.415 942.315M323.618 330.467L323.227 330.156L323.223 330.161C324.877 327.993 328.334 325.253 330.78 323.928L330.789 323.923L330.798 323.919C332.891 322.898 334.374 322.327 337.518 322.021C340.623 321.718 345.376 321.668 354.015 321.668C364.199 321.668 370.209 321.866 374.337 322.806C376.415 323.279 378.03 323.943 379.47 324.87C380.904 325.793 382.143 326.965 383.479 328.428C383.552 328.506 383.671 328.664 383.815 328.862C383.969 329.074 384.173 329.363 384.426 329.727C384.933 330.454 385.64 331.485 386.535 332.803C388.327 335.44 390.878 339.231 394.104 344.049C400.555 353.685 409.708 367.431 420.888 384.273C443.249 417.958 473.721 464.029 506.918 514.374C573.311 615.064 664.102 752.551 708.698 820.044L789.415 942.315M789.415 942.315L793.098 939.89L793.1 939.889C829.355 916.318 867.717 882.752 898.085 847.789L898.085 847.789C962.716 773.568 1004.37 683.065 1018.36 586.57C1022.45 558.504 1022.95 550.23 1022.95 512.15C1022.95 474.07 1022.45 465.796 1018.36 437.729L1018.36 437.729C990.586 245.837 854.032 84.6092 668.831 24.8733L668.831 24.8731C636.17 14.286 601.408 6.99308 562.442 2.59674C557.667 2.09972 538.774 1.57479 520.004 1.27466C501.225 0.974392 482.665 0.90091 478.551 1.29741L478.503 0.799721L478.549 1.29767C478.025 1.34523 477.228 1.42136 476.231 1.5165C473.052 1.81999 467.845 2.31698 463.047 2.6978M463.047 2.6978C463.048 2.69772 463.049 2.69764 463.05 2.69756L463.005 2.19958M463.047 2.6978C463.046 2.69787 463.045 2.69795 463.044 2.69802L463.005 2.19958" fill="white" stroke="black"/>
</svg>
